<svg height="480pt" viewBox="-48 0 480 480" width="480pt" xmlns="http://www.w3.org/2000/svg"><path d="m384 200v-128c-.042969-39.746094-32.253906-71.9570312-72-72h-240c-39.746094.0429688-71.9570312 32.253906-72 72v400c0 3.445312 2.203125 6.5 5.46875 7.589844 3.269531 1.089844 6.863281-.035156 8.929688-2.789063l113.601562-151.464843 113.601562 151.464843c1.507813 2.011719 3.878907 3.199219 6.398438 3.199219 4.417969 0 8-3.582031 8-8v-264h120c4.417969 0 8-3.582031 8-8zm-144 248-105.601562-140.800781c-1.507813-2.011719-3.878907-3.199219-6.398438-3.199219s-4.890625 1.1875-6.398438 3.199219l-105.601562 140.800781v-376c.035156-30.914062 25.085938-55.964844 56-56h194.792969c-16.945313 13.652344-26.792969 34.242188-26.792969 56zm128-256h-112v-120c0-30.929688 25.070312-56 56-56s56 25.070312 56 56zm0 0"/><path d="m200.96875 133.734375-45.527344-6.957031-20.441406-43.578125c-1.316406-2.808594-4.140625-4.605469-7.242188-4.605469-3.105468 0-5.929687 1.796875-7.246093 4.605469l-20.433594 43.578125-45.527344 6.957031c-2.960937.457031-5.417969 2.527344-6.371093 5.367187-.953126 2.839844-.238282 5.976563 1.851562 8.121094l33.167969 34.007813-7.839844 48.113281c-.480469 3.019531.804687 6.050781 3.308594 7.808594 2.503906 1.753906 5.792969 1.929687 8.46875.449218l40.625-22.402343 40.621093 22.402343c2.683594 1.480469 5.976563 1.304688 8.480469-.460937 2.503907-1.765625 3.78125-4.804687 3.289063-7.828125l-7.847656-48.113281 33.183593-34c2.089844-2.144531 2.804688-5.28125 1.851563-8.121094-.949219-2.839844-3.410156-4.910156-6.371094-5.367187zm-42.9375 39.203125c-1.773438 1.816406-2.578125 4.371094-2.167969 6.878906l5.847657 35.832032-30.078126-16.625c-2.410156-1.332032-5.335937-1.332032-7.746093 0l-30.078125 16.625 5.847656-35.832032c.410156-2.507812-.394531-5.0625-2.167969-6.878906l-25.136719-25.738281 34.402344-5.246094c2.632813-.402344 4.894532-2.09375 6.03125-4.503906l15.007813-32 15.007812 32c1.132813 2.410156 3.394531 4.101562 6.03125 4.503906l34.367188 5.246094zm0 0"/></svg>